<svg width="34" height="34" viewBox="0 0 34 34" fill="none" xmlns="http://www.w3.org/2000/svg">
<path d="M12.9091 32C13.6622 32 14.2727 31.3604 14.2727 30.5715C14.2727 29.7825 13.6622 29.1429 12.9091 29.1429C12.156 29.1429 11.5455 29.7825 11.5455 30.5715C11.5455 31.3604 12.156 32 12.9091 32Z" stroke="#FAEA83" stroke-width="3" stroke-linecap="round" stroke-linejoin="round"/>
<path d="M27.9091 32C28.6622 32 29.2727 31.3604 29.2727 30.5715C29.2727 29.7825 28.6622 29.1429 27.9091 29.1429C27.156 29.1429 26.5455 29.7825 26.5455 30.5715C26.5455 31.3604 27.156 32 27.9091 32Z" stroke="#FAEA83" stroke-width="3" stroke-linecap="round" stroke-linejoin="round"/>
<path d="M2 2H7.45455L11.1091 21.1286C11.2338 21.7863 11.5753 22.3771 12.0739 22.7976C12.5725 23.218 13.1964 23.4414 13.8364 23.4286H27.0909C27.7309 23.4414 28.3548 23.218 28.8533 22.7976C29.3519 22.3771 29.6935 21.7863 29.8182 21.1286L32 9.14285H8.81818" stroke="#FAEA83" stroke-width="3" stroke-linecap="round" stroke-linejoin="round"/>
</svg>
