<svg width="49" height="49" viewBox="0 0 49 49" fill="none" xmlns="http://www.w3.org/2000/svg">
<path d="M35.75 2H13.25C7.0368 2 2 7.0368 2 13.25V35.75C2 41.9632 7.0368 47 13.25 47H35.75C41.9632 47 47 41.9632 47 35.75V13.25C47 7.0368 41.9632 2 35.75 2Z" stroke="#FAEA83" stroke-width="4" stroke-linecap="round" stroke-linejoin="round"/>
<path d="M33.5 23.0827C33.7777 24.9552 33.4579 26.8677 32.586 28.548C31.7141 30.2283 30.3346 31.5909 28.6437 32.442C26.9528 33.293 25.0365 33.5893 23.1675 33.2885C21.2986 32.9878 19.572 32.1054 18.2334 30.7668C16.8948 29.4282 16.0124 27.7017 15.7117 25.8327C15.4109 23.9637 15.7072 22.0475 16.5583 20.3565C17.4093 18.6656 18.7719 17.2861 20.4522 16.4142C22.1325 15.5424 24.045 15.2225 25.9175 15.5002C27.8276 15.7834 29.5959 16.6735 30.9613 18.0389C32.3267 19.4043 33.2168 21.1726 33.5 23.0827Z" stroke="#FAEA83" stroke-width="4" stroke-linecap="round" stroke-linejoin="round"/>
<path d="M36.875 12.125H36.8975" stroke="#FAEA83" stroke-width="4" stroke-linecap="round" stroke-linejoin="round"/>
</svg>
